<svg width="20" height="19" viewBox="0 0 20 19" fill="none" xmlns="http://www.w3.org/2000/svg">
<path d="M19.2414 4.62031L18.193 10.3695C18.1065 10.8445 17.8561 11.274 17.4855 11.5834C17.1149 11.8927 16.6476 12.0623 16.1648 12.0625H6.19609L6.57422 14.125H15.8125C16.2204 14.125 16.6192 14.246 16.9584 14.4726C17.2975 14.6992 17.5619 15.0213 17.718 15.3982C17.8741 15.7751 17.915 16.1898 17.8354 16.5899C17.7558 16.99 17.5594 17.3575 17.2709 17.6459C16.9825 17.9344 16.615 18.1308 16.2149 18.2104C15.8148 18.2899 15.4001 18.2491 15.0232 18.093C14.6463 17.9369 14.3242 17.6725 14.0976 17.3334C13.871 16.9942 13.75 16.5954 13.75 16.1875C13.7501 15.9531 13.7908 15.7205 13.8703 15.5H8.81719C8.89672 15.7205 8.93743 15.9531 8.9375 16.1875C8.93812 16.5203 8.85821 16.8482 8.7046 17.1434C8.55099 17.4386 8.32823 17.6923 8.05534 17.8827C7.78245 18.0732 7.46753 18.1947 7.13746 18.2371C6.8074 18.2794 6.47199 18.2413 6.15986 18.1259C5.84774 18.0105 5.56816 17.8213 5.34501 17.5745C5.12185 17.3276 4.96174 17.0304 4.87833 16.7083C4.79493 16.3861 4.79071 16.0486 4.86605 15.7244C4.94138 15.4003 5.09402 15.0992 5.31094 14.8469L2.93047 1.75H1.375C1.19266 1.75 1.0178 1.67757 0.888864 1.54864C0.759933 1.4197 0.6875 1.24484 0.6875 1.0625C0.6875 0.880164 0.759933 0.705295 0.888864 0.576364C1.0178 0.447433 1.19266 0.375 1.375 0.375H2.93047C3.25139 0.375702 3.56196 0.488638 3.80838 0.694244C4.05479 0.899849 4.22152 1.18517 4.27969 1.50078L4.70078 3.8125H18.5625C18.6629 3.81271 18.7619 3.83517 18.8526 3.87826C18.9432 3.92136 19.0232 3.98401 19.0867 4.06172C19.1532 4.13699 19.2017 4.2264 19.2285 4.32318C19.2553 4.41996 19.2597 4.52157 19.2414 4.62031Z" fill="#C47F17"/>
</svg>
