<svg width="16" height="20" viewBox="0 0 16 20" fill="none" xmlns="http://www.w3.org/2000/svg">
<path d="M8 0.375C5.995 0.377275 4.07277 1.17477 2.65502 2.59252C1.23727 4.01027 0.439775 5.9325 0.4375 7.9375C0.4375 14.4086 7.3125 19.2984 7.60469 19.5047C7.72178 19.5827 7.85932 19.6243 8 19.6243C8.14068 19.6243 8.27822 19.5827 8.39531 19.5047C8.6875 19.2984 15.5625 14.4086 15.5625 7.9375C15.5602 5.9325 14.7627 4.01027 13.345 2.59252C11.9272 1.17477 10.005 0.377275 8 0.375V0.375ZM8 5.1875C8.5439 5.1875 9.07558 5.34878 9.52782 5.65096C9.98005 5.95313 10.3325 6.38262 10.5407 6.88512C10.7488 7.38762 10.8033 7.94055 10.6972 8.474C10.5911 9.00745 10.3291 9.49745 9.94454 9.88204C9.55995 10.2666 9.06995 10.5286 8.5365 10.6347C8.00305 10.7408 7.45012 10.6863 6.94762 10.4782C6.44512 10.27 6.01563 9.91755 5.71346 9.46532C5.41128 9.01308 5.25 8.4814 5.25 7.9375C5.25 7.20815 5.53973 6.50868 6.05546 5.99296C6.57118 5.47723 7.27065 5.1875 8 5.1875V5.1875Z" fill="#8047F8"/>
</svg>
